<?xml version="1.0" encoding="UTF-8" standalone="no"?>
<svg
   xmlns:dc="http://purl.org/dc/elements/1.1/"
   xmlns:cc="http://creativecommons.org/ns#"
   xmlns:rdf="http://www.w3.org/1999/02/22-rdf-syntax-ns#"
   xmlns:svg="http://www.w3.org/2000/svg"
   xmlns="http://www.w3.org/2000/svg"
   xmlns:sodipodi="http://sodipodi.sourceforge.net/DTD/sodipodi-0.dtd"
   xmlns:inkscape="http://www.inkscape.org/namespaces/inkscape"
   version="1.1"
   id="Layer_1"
   x="0px"
   y="0px"
   viewBox="0 0 30 30"
   style="enable-background:new 0 0 30 30;"
   xml:space="preserve"
   sodipodi:docname="wi-thermometer_low.svg"
   inkscape:version="1.0.2 (e86c870879, 2021-01-15, custom)"><metadata
   id="metadata422"><rdf:RDF><cc:Work
       rdf:about=""><dc:format>image/svg+xml</dc:format><dc:type
         rdf:resource="http://purl.org/dc/dcmitype/StillImage" /><dc:title></dc:title></cc:Work></rdf:RDF></metadata><defs
   id="defs420" /><sodipodi:namedview
   pagecolor="#ffffff"
   bordercolor="#666666"
   borderopacity="1"
   objecttolerance="10"
   gridtolerance="10"
   guidetolerance="10"
   inkscape:pageopacity="0"
   inkscape:pageshadow="2"
   inkscape:window-width="1368"
   inkscape:window-height="850"
   id="namedview418"
   showgrid="false"
   inkscape:zoom="27.931191"
   inkscape:cx="15"
   inkscape:cy="13.595"
   inkscape:window-x="-6"
   inkscape:window-y="-6"
   inkscape:window-maximized="1"
   inkscape:current-layer="Layer_1" />
<path
   d="m 9.91,19.56 c 0,-0.85 0.2,-1.64 0.59,-2.38 0.39,-0.74 0.94,-1.35 1.65,-1.84 V 5.42 c 0,-0.8 0.27,-1.48 0.82,-2.03 0.55,-0.55 1.23,-0.84 2.03,-0.84 0.81,0 1.49,0.28 2.04,0.83 0.55,0.56 0.83,1.23 0.83,2.03 v 9.92 c 0.71,0.49 1.25,1.11 1.64,1.84 0.39,0.73 0.58,1.53 0.58,2.38 0,0.92 -0.23,1.78 -0.68,2.56 -0.45,0.78 -1.07,1.4 -1.85,1.85 -0.78,0.45 -1.63,0.68 -2.56,0.68 -0.92,0 -1.77,-0.23 -2.55,-0.68 -0.78,-0.45 -1.4,-1.07 -1.86,-1.85 -0.46,-0.78 -0.68,-1.63 -0.68,-2.55 z m 1.76,0 c 0,0.93 0.33,1.73 0.98,2.39 0.65,0.66 1.44,0.99 2.36,0.99 0.93,0 1.73,-0.33 2.4,-1 0.67,-0.67 1.01,-1.46 1.01,-2.37 0,-0.62 -0.16,-1.2 -0.48,-1.73 -0.32,-0.53 -0.76,-0.94 -1.32,-1.23 l -0.28,-0.14 c -0.1,-0.04 -0.15,-0.14 -0.15,-0.29 V 5.42 C 16.19,5.1 16.08,4.83 15.85,4.61 15.62,4.4 15.34,4.29 15,4.29 c -0.32,0 -0.6,0.11 -0.83,0.32 -0.23,0.21 -0.34,0.48 -0.34,0.81 v 10.74 c 0,0.15 -0.05,0.25 -0.14,0.29 l -0.27,0.14 c -0.55,0.29 -0.98,0.7 -1.29,1.23 -0.31,0.53 -0.46,1.1 -0.46,1.74 z m 0.78,0 c 0,0.71 0.24,1.32 0.73,1.82 0.49,0.5 1.07,0.75 1.76,0.75 0.69,0 1.28,-0.25 1.79,-0.75 0.51,-0.5 0.76,-1.11 0.76,-1.81 0,-0.63 -0.22,-1.19 -0.65,-1.67 -0.43,-0.48 -0.96,-0.77 -1.58,-0.85 v -3.36 c 0,-0.06 -0.03,-0.13 -0.1,-0.19 -0.07,-0.07 -0.14,-0.1 -0.22,-0.1 -0.09,0 -0.16,0.03 -0.21,0.08 -0.05,0.06 -0.08,0.12 -0.08,0.21 v 3.34 c -0.61,0.09 -1.13,0.37 -1.56,0.85 -0.43,0.49 -0.64,1.04 -0.64,1.68 z"
   id="path415"
   sodipodi:nodetypes="sscssscscssssssssssssssccsscssssccsssssssscscscsccs" />
</svg>
